<svg xmlns="http://www.w3.org/2000/svg" xmlns:xlink="http://www.w3.org/1999/xlink" width="95" height="95" viewBox="0 0 95 95">
  <defs>
    <clipPath id="clip-head">
      <rect width="95" height="95"/>
    </clipPath>
  </defs>
  <g id="head" clip-path="url(#clip-head)">
    <g id="psychology-24px">
      <g id="Group_8" data-name="Group 8">
        <rect id="Rectangle_17" data-name="Rectangle 17" width="95" height="95" fill="none"/>
      </g>
      <g id="Group_10" data-name="Group 10" transform="translate(15.221 11.75)">
        <g id="Group_9" data-name="Group 9">
          <path id="Path_6" data-name="Path 6" d="M17.214,8.57a5.644,5.644,0,1,0,5.644,5.644A5.643,5.643,0,0,0,17.214,8.57Z" transform="translate(18.314 13.414)" fill="rgba(255,255,255,0.7)"/>
          <path id="Path_7" data-name="Path 7" d="M39.526,3A27.553,27.553,0,0,0,11.978,29.207L4.4,39.31a1.972,1.972,0,0,0,1.579,3.157H11.9v11.84A7.917,7.917,0,0,0,19.792,62.2h3.947v11.84H51.367V55.571A27.616,27.616,0,0,0,39.526,3Zm11.84,27.627c0,.513-.039,1.026-.079,1.539l3.276,2.6a.74.74,0,0,1,.2.987L51.6,41.244a.793.793,0,0,1-.947.355l-3.907-1.579A11.86,11.86,0,0,1,44.1,41.56l-.631,4.184a.773.773,0,0,1-.789.671H36.369a.8.8,0,0,1-.789-.671l-.592-4.184A11.289,11.289,0,0,1,32.3,40.021L28.4,41.6a.828.828,0,0,1-.987-.355l-3.157-5.486a.748.748,0,0,1,.2-.987l3.315-2.6c-.039-.513-.079-1.026-.079-1.539a9.681,9.681,0,0,1,.158-1.539l-3.355-2.6a.781.781,0,0,1-.2-1.026l3.157-5.447a.777.777,0,0,1,.947-.355l3.947,1.579a12.53,12.53,0,0,1,2.644-1.539l.592-4.184a.8.8,0,0,1,.789-.671h6.315a.8.8,0,0,1,.789.671l.592,4.184a11.86,11.86,0,0,1,2.644,1.539l3.947-1.579a.761.761,0,0,1,.947.355l3.157,5.447a.79.79,0,0,1-.2,1.026l-3.355,2.6A6.359,6.359,0,0,1,51.367,30.627Z" transform="translate(-3.998 -3)" fill="rgba(255,255,255,0.7)"/>
        </g>
      </g>
    </g>
  </g>
</svg>
