<svg xmlns="http://www.w3.org/2000/svg" xmlns:xlink="http://www.w3.org/1999/xlink" width="77" height="77" viewBox="0 0 77 77">
  <defs>
    <clipPath id="clip-triangle">
      <rect width="77" height="77"/>
    </clipPath>
  </defs>
  <g id="triangle" clip-path="url(#clip-triangle)">
    <g id="Polygon_1" data-name="Polygon 1" transform="translate(-11.761 11.07) rotate(-17)" fill="none">
      <path d="M26.076,18.278a12,12,0,0,1,20.848,0L62.766,46.055A12,12,0,0,1,52.342,64H20.658A12,12,0,0,1,10.234,46.055Z" stroke="none"/>
      <path d="M 36.49999618530273 17.22245788574219 C 35.28564453125 17.22245788574219 34.09708404541016 17.52717208862305 33.06282043457031 18.10364532470703 C 31.96205902099609 18.71718597412109 31.07266998291016 19.60909652709961 30.41937255859375 20.75459671020508 L 14.57749557495117 48.53213500976562 C 13.93004608154297 49.66739654541016 13.61528396606445 50.87697219848633 13.64196014404297 52.12725830078125 C 13.66703414916992 53.30252075195312 14.0001220703125 54.47434616088867 14.60522079467773 55.51603698730469 C 15.21031951904297 56.55770874023438 16.0632209777832 57.42758178710938 17.07170867919922 58.03160858154297 C 18.14456939697266 58.67418670654297 19.3512077331543 58.99999618530273 20.65812301635742 58.99999618530273 L 52.34187316894531 58.99999618530273 C 53.64878463745117 58.99999618530273 54.85542297363281 58.67418670654297 55.92828369140625 58.03160858154297 C 56.93675994873047 57.42759704589844 57.78965759277344 56.55772399902344 58.39476013183594 55.51603698730469 C 58.99985885620117 54.47434616088867 59.33294677734375 53.30253601074219 59.3580322265625 52.12725830078125 C 59.38470840454102 50.87697219848633 59.0699462890625 49.66739654541016 58.4224967956543 48.53213500976562 L 42.58061981201172 20.75459671020508 C 41.92732238769531 19.60909652709961 41.03793334960938 18.71718597412109 39.93717193603516 18.10364532470703 C 38.90290832519531 17.52717208862305 37.71434783935547 17.22245788574219 36.49999618530273 17.22245788574219 M 36.49999618530273 12.22246170043945 C 40.56085968017578 12.22246170043945 44.62171936035156 14.24082946777344 46.92391967773438 18.27756118774414 L 62.76579666137695 46.05509948730469 C 67.32819366455078 54.054931640625 61.5512580871582 63.99999618530273 52.34187316894531 63.99999618530273 L 20.65812301635742 63.99999618530273 C 11.44873428344727 63.99999618530273 5.671783447265625 54.054931640625 10.23419570922852 46.05509948730469 L 26.07607269287109 18.27756118774414 C 28.37827301025391 14.24082946777344 32.43913269042969 12.22246170043945 36.49999618530273 12.22246170043945 Z" stroke="none" fill="#ffa68a"/>
    </g>
  </g>
</svg>
